<?xml version="1.0" encoding="UTF-8" standalone="no"?>
<svg viewBox="0 0 40 40" version="1.1" id="svg1" sodipodi:docname="favicon.svg"
   inkscape:version="1.4 (86a8ad7, 2024-10-11)" xmlns:inkscape="http://www.inkscape.org/namespaces/inkscape"
   xmlns:sodipodi="http://sodipodi.sourceforge.net/DTD/sodipodi-0.dtd" xmlns="http://www.w3.org/2000/svg"
   xmlns:svg="http://www.w3.org/2000/svg">
   <defs id="defs1" />
   <sodipodi:namedview id="namedview1" pagecolor="#505050" bordercolor="#eeeeee" borderopacity="1"
      inkscape:showpageshadow="0" inkscape:pageopacity="0" inkscape:pagecheckerboard="0" inkscape:deskcolor="#505050"
      inkscape:zoom="20.175" inkscape:cx="20" inkscape:cy="20" inkscape:window-width="1920"
      inkscape:window-height="1009" inkscape:window-x="-8" inkscape:window-y="-8" inkscape:window-maximized="1"
      inkscape:current-layer="svg1" />
   <style id="style1" />
   .small {
   font: 1.1em &quot;Oooh Baby&quot;;
   }
   //背景
   <rect id="rect1" x="0" y="0" width="40" height="40" fill="#99d6ff" />
   //戦闘機
   <g id="g1">
      <path id="path1" d="M 34,18
   C 36,18,38,19,38,20
   C 38,21 36,22 34,22
   L 32,22
   L 26,22
   L 32,22
   L 32,24
   L 26,24
   L 27,24
   L 15,37
   L 12,37
   L 10,24
   C 9,24,7,23,6,23
   L 4,23
   L 4 22
   L 2,21
   L 2 19
   L 4,18
   L 4,17
   L 6,17
   C 7,17,9,16,10,16
   L 12,3
   L 15,3
   L 27,16
   L 26,16
   L 32,16
   L 32,18
   L 26,18
   L 34,18
   Z" fill="#cacaca " stroke=" #202020 " stroke-width="0.1px" />
      //カナード上
      <path id=" path2" d="
   M 26,16
   L 25,13
   L 30,16
   Z" fill="#cacaca " stroke=" #202020 " stroke-width="0.1px" />
      //カナード下
      <path id="path3" d="
   M 26,24
   L 30,24
   L 25,27
   Z" fill="#cacaca " stroke=" #202020 " stroke-width="0.1px" />
   </g>
   //一番上にタイトル
   <text x="3" y="23" class="small" id="text1"
      style="font-style:normal;font-variant:normal;font-weight:normal;font-stretch:normal;font-size:13.2px;line-height:normal;font-family:'Oooh Baby'">Ararat</text>
</svg>